<mxfile host="app.diagrams.net" modified="2024-05-09T05:55:22.020Z" agent="Mozilla/5.0 (Macintosh; Intel Mac OS X 10_15_7) AppleWebKit/537.36 (KHTML, like Gecko) Chrome/124.0.0.0 Safari/537.36" etag="ezL3xqHKRgC5bH32qvxO" version="24.3.1" type="github">
  <diagram name="Page-1" id="e7e014a7-5840-1c2e-5031-d8a46d1fe8dd">
    <mxGraphModel dx="2074" dy="1043" grid="1" gridSize="10" guides="1" tooltips="1" connect="1" arrows="1" fold="1" page="1" pageScale="1" pageWidth="1169" pageHeight="826" background="none" math="0" shadow="0">
      <root>
        <mxCell id="0" />
        <mxCell id="1" parent="0" />
        <mxCell id="_xcJb3g-lZanCzlQXOw--56" value="redis（共用&amp;nbsp; 同一套数据）" style="shape=umlLifeline;perimeter=lifelinePerimeter;whiteSpace=wrap;html=1;container=1;dropTarget=0;collapsible=0;recursiveResize=0;outlineConnect=0;portConstraint=eastwest;newEdgeStyle={&quot;curved&quot;:0,&quot;rounded&quot;:0};participant=umlEntity;" vertex="1" parent="1">
          <mxGeometry x="820" y="40" width="150" height="670" as="geometry" />
        </mxCell>
        <mxCell id="_xcJb3g-lZanCzlQXOw--57" value="hub" style="shape=umlLifeline;perimeter=lifelinePerimeter;whiteSpace=wrap;html=1;container=1;dropTarget=0;collapsible=0;recursiveResize=0;outlineConnect=0;portConstraint=eastwest;newEdgeStyle={&quot;curved&quot;:0,&quot;rounded&quot;:0};participant=umlEntity;" vertex="1" parent="1">
          <mxGeometry x="590" y="40" width="40" height="680" as="geometry" />
        </mxCell>
        <mxCell id="_xcJb3g-lZanCzlQXOw--58" value="openapi" style="shape=umlLifeline;perimeter=lifelinePerimeter;whiteSpace=wrap;html=1;container=1;dropTarget=0;collapsible=0;recursiveResize=0;outlineConnect=0;portConstraint=eastwest;newEdgeStyle={&quot;curved&quot;:0,&quot;rounded&quot;:0};participant=umlEntity;" vertex="1" parent="1">
          <mxGeometry x="300" y="50" width="40" height="670" as="geometry" />
        </mxCell>
        <mxCell id="_xcJb3g-lZanCzlQXOw--59" value="底座7501" style="shape=umlLifeline;perimeter=lifelinePerimeter;whiteSpace=wrap;html=1;container=1;dropTarget=0;collapsible=0;recursiveResize=0;outlineConnect=0;portConstraint=eastwest;newEdgeStyle={&quot;curved&quot;:0,&quot;rounded&quot;:0};participant=umlEntity;" vertex="1" parent="1">
          <mxGeometry x="1030" y="40" width="40" height="670" as="geometry" />
        </mxCell>
        <mxCell id="_xcJb3g-lZanCzlQXOw--60" value="" style="endArrow=classic;html=1;rounded=0;" edge="1" parent="1">
          <mxGeometry width="50" height="50" relative="1" as="geometry">
            <mxPoint x="350" y="140" as="sourcePoint" />
            <mxPoint x="889.5" y="140" as="targetPoint" />
            <Array as="points">
              <mxPoint x="630" y="140" />
            </Array>
          </mxGeometry>
        </mxCell>
        <mxCell id="_xcJb3g-lZanCzlQXOw--61" value="获取项目详情" style="text;html=1;align=center;verticalAlign=middle;resizable=0;points=[];autosize=1;strokeColor=none;fillColor=none;" vertex="1" parent="1">
          <mxGeometry x="620" y="118" width="100" height="30" as="geometry" />
        </mxCell>
        <mxCell id="_xcJb3g-lZanCzlQXOw--62" value="" style="endArrow=classic;html=1;rounded=0;" edge="1" parent="1">
          <mxGeometry width="50" height="50" relative="1" as="geometry">
            <mxPoint x="880.5" y="190" as="sourcePoint" />
            <mxPoint x="330" y="190" as="targetPoint" />
          </mxGeometry>
        </mxCell>
        <mxCell id="_xcJb3g-lZanCzlQXOw--63" value="返回项目详情" style="edgeLabel;html=1;align=center;verticalAlign=middle;resizable=0;points=[];" vertex="1" connectable="0" parent="_xcJb3g-lZanCzlQXOw--62">
          <mxGeometry x="-0.1426" y="-1" relative="1" as="geometry">
            <mxPoint x="6" y="-9" as="offset" />
          </mxGeometry>
        </mxCell>
        <mxCell id="_xcJb3g-lZanCzlQXOw--65" value="" style="endArrow=classic;html=1;rounded=0;" edge="1" parent="1">
          <mxGeometry width="50" height="50" relative="1" as="geometry">
            <mxPoint x="330.5" y="220" as="sourcePoint" />
            <mxPoint x="1030" y="220" as="targetPoint" />
          </mxGeometry>
        </mxCell>
        <mxCell id="_xcJb3g-lZanCzlQXOw--66" value="缓存没有调用底座" style="edgeLabel;html=1;align=center;verticalAlign=middle;resizable=0;points=[];" vertex="1" connectable="0" parent="_xcJb3g-lZanCzlQXOw--65">
          <mxGeometry x="0.055" y="-2" relative="1" as="geometry">
            <mxPoint as="offset" />
          </mxGeometry>
        </mxCell>
        <mxCell id="_xcJb3g-lZanCzlQXOw--67" value="" style="endArrow=classic;html=1;rounded=0;" edge="1" parent="1">
          <mxGeometry width="50" height="50" relative="1" as="geometry">
            <mxPoint x="1029.5" y="250" as="sourcePoint" />
            <mxPoint x="340" y="250" as="targetPoint" />
          </mxGeometry>
        </mxCell>
        <mxCell id="_xcJb3g-lZanCzlQXOw--68" value="返回数据并同步存入redis" style="edgeLabel;html=1;align=center;verticalAlign=middle;resizable=0;points=[];" vertex="1" connectable="0" parent="_xcJb3g-lZanCzlQXOw--67">
          <mxGeometry x="0.055" y="-2" relative="1" as="geometry">
            <mxPoint as="offset" />
          </mxGeometry>
        </mxCell>
        <mxCell id="_xcJb3g-lZanCzlQXOw--70" value="" style="endArrow=classic;html=1;rounded=0;" edge="1" parent="1">
          <mxGeometry width="50" height="50" relative="1" as="geometry">
            <mxPoint x="620" y="486" as="sourcePoint" />
            <mxPoint x="880" y="486" as="targetPoint" />
            <Array as="points">
              <mxPoint x="810" y="485.5" />
            </Array>
          </mxGeometry>
        </mxCell>
        <mxCell id="_xcJb3g-lZanCzlQXOw--71" value="获取项目详情" style="text;html=1;align=center;verticalAlign=middle;resizable=0;points=[];autosize=1;strokeColor=none;fillColor=none;" vertex="1" parent="1">
          <mxGeometry x="710" y="460" width="100" height="30" as="geometry" />
        </mxCell>
        <mxCell id="_xcJb3g-lZanCzlQXOw--72" value="" style="endArrow=classic;html=1;rounded=0;" edge="1" parent="1">
          <mxGeometry width="50" height="50" relative="1" as="geometry">
            <mxPoint x="889.5" y="530" as="sourcePoint" />
            <mxPoint x="620" y="530" as="targetPoint" />
          </mxGeometry>
        </mxCell>
        <mxCell id="_xcJb3g-lZanCzlQXOw--73" value="返回项目详情" style="edgeLabel;html=1;align=center;verticalAlign=middle;resizable=0;points=[];" vertex="1" connectable="0" parent="_xcJb3g-lZanCzlQXOw--72">
          <mxGeometry x="-0.1426" y="-1" relative="1" as="geometry">
            <mxPoint x="6" y="-9" as="offset" />
          </mxGeometry>
        </mxCell>
        <mxCell id="_xcJb3g-lZanCzlQXOw--74" value="" style="endArrow=classic;html=1;rounded=0;" edge="1" parent="1">
          <mxGeometry width="50" height="50" relative="1" as="geometry">
            <mxPoint x="610" y="566" as="sourcePoint" />
            <mxPoint x="1210" y="565.5" as="targetPoint" />
          </mxGeometry>
        </mxCell>
        <mxCell id="_xcJb3g-lZanCzlQXOw--75" value="缓存没有调用底座" style="edgeLabel;html=1;align=center;verticalAlign=middle;resizable=0;points=[];" vertex="1" connectable="0" parent="_xcJb3g-lZanCzlQXOw--74">
          <mxGeometry x="0.055" y="-2" relative="1" as="geometry">
            <mxPoint as="offset" />
          </mxGeometry>
        </mxCell>
        <mxCell id="_xcJb3g-lZanCzlQXOw--76" value="" style="endArrow=classic;html=1;rounded=0;" edge="1" parent="1">
          <mxGeometry width="50" height="50" relative="1" as="geometry">
            <mxPoint x="1209.5" y="595.5" as="sourcePoint" />
            <mxPoint x="620" y="596" as="targetPoint" />
          </mxGeometry>
        </mxCell>
        <mxCell id="_xcJb3g-lZanCzlQXOw--77" value="返回数据并同步存入redis" style="edgeLabel;html=1;align=center;verticalAlign=middle;resizable=0;points=[];" vertex="1" connectable="0" parent="_xcJb3g-lZanCzlQXOw--76">
          <mxGeometry x="0.055" y="-2" relative="1" as="geometry">
            <mxPoint as="offset" />
          </mxGeometry>
        </mxCell>
        <mxCell id="_xcJb3g-lZanCzlQXOw--78" value="底座7500" style="shape=umlLifeline;perimeter=lifelinePerimeter;whiteSpace=wrap;html=1;container=1;dropTarget=0;collapsible=0;recursiveResize=0;outlineConnect=0;portConstraint=eastwest;newEdgeStyle={&quot;curved&quot;:0,&quot;rounded&quot;:0};participant=umlEntity;" vertex="1" parent="1">
          <mxGeometry x="1190" y="40" width="40" height="670" as="geometry" />
        </mxCell>
      </root>
    </mxGraphModel>
  </diagram>
</mxfile>
